# xmcd
# 
# Track frame offsets:
#	150
#	19169
#	38134
#	68446
#
# Disc length: 1017 seconds
#
# Revision: 1
# Processed by: cddbd v1.4PL0 Copyright (c) Steve Scherf et al.
# Submitted via: Audio-CD-Archiv 2.10.446
#
DISCID=2703f704
DTITLE=Thomas Wohlfahrt - Trough the Storm
DYEAR=1900
DGENRE=blues
TTITLE0=Trough the Storm
TTITLE1=Trough the Storm instrumental
TTITLE2=Trough the Storm (Pure Symphonic Mix)
TTITLE3=Datentrack
EXTD=
EXTT0=
EXTT1=
EXTT2=
EXTT3=
PLAYORDER=
